# AST/ASF file generated using VICON BodyLanguage
# -----------------------------------------------
:version 1.10
:name VICON
:units
  mass 1.0
  length 0.45
  angle deg
:documentation
   .ast/.asf automatically generated from VICON data using
   VICON BodyBuilder and BodyLanguage model FoxedUp or BRILLIANT.MOD
:root
   order TX TY TZ RX RY RZ
   axis XYZ
   position 0 0 0  
   orientation 0 0 0 
:bonedata
  begin
     id 1 
     name lhipjoint
     direction 0.578396 -0.714046 0.394458 
     length 2.21935 
     axis 0 0 0  XYZ
  end
  begin
     id 2 
     name lfemur
     direction 0.34202 -0.939693 0  
     length 6.39105  
     axis 0 0 20  XYZ
    dof rx ry rz
    limits (-160.0 20.0)
           (-70.0 70.0)
           (-60.0 70.0)
  end
  begin
     id 3 
     name ltibia
     direction 0.34202 -0.939693 0   
     length 6.99037   
     axis 0 0 20   XYZ
    dof rx
    limits (-10.0 170.0)
  end
  begin
     id 4 
     name lfoot
     direction 0.0582372 -0.160005 0.985397   
     length 2.06111   
     axis -90 7.62852e-016 20   XYZ
    dof rx rz
    limits (-45.0 90.0)
           (-70.0 20.0)
  end
  begin
     id 5 
     name ltoes
     direction 1.53556e-011 -4.21875e-011 1   
     length 1.04074   
     axis -90 7.62852e-016 20   XYZ
    dof rx
    limits (-90.0 20.0)
  end
  begin
     id 6 
     name rhipjoint
     direction -0.558179 -0.726269 0.40121   
     length 2.182  
     axis 0 0 0  XYZ 
  end
  begin
     id 7 
     name rfemur
     direction -0.34202 -0.939693 0   
     length 6.51172   
     axis 0 0 -20   XYZ
    dof rx ry rz
    limits (-160.0 20.0)
           (-70.0 70.0)
           (-70.0 60.0)
  end
  begin
     id 8 
     name rtibia
     direction -0.34202 -0.939693 0   
     length 7.02607   
     axis 0 0 -20   XYZ
    dof rx
    limits (-10.0 170.0)
 end
 begin
     id 9 
     name rfoot
     direction -0.0788856 -0.216737 0.973038   
     length 1.96734  
     axis -90 -7.62852e-016 -20   XYZ
    dof rx rz
    limits (-45.0 90.0)
           (-20.0 70.0)
  end
  begin
     id 10 
     name rtoes
     direction -1.53567e-011 -4.21783e-011 1   
     length 0.990825   
     axis -90 -7.62852e-016 -20   XYZ
    dof rx
    limits (-90.0 20.0)
  end
  begin
     id 11 
     name lowerback
     direction 0.00668177 0.999323 -0.0361741   
     length 1.7655   
     axis 0 0 0   XYZ
    dof rx ry rz
    limits (-20.0 45.0)
           (-30.0 30.0)
           (-30.0 30.0)
  end
  begin
     id 12 
     name upperback
     direction -0.00222086 0.99851 0.0545167   
     length 1.74912   
     axis 0 0 0   XYZ
    dof rx ry rz
    limits (-20.0 45.0)
           (-30.0 30.0)
           (-30.0 30.0)
  end
  begin
     id 13 
     name thorax
     direction -0.00733971 0.997496 0.0703443   
     length 1.75715   
     axis 0 0 0   XYZ
    dof rx ry rz
    limits (-20.0 45.0)
           (-30.0 30.0)
           (-30.0 30.0)
  end
  begin
     id 14 
     name lowerneck
     direction 0.0279797 0.994795 0.0979765   
     length 1.46939   
     axis 0 0 0   XYZ
    dof rx ry rz
    limits (-20.0 45.0)
           (-30.0 30.0)
           (-30.0 30.0)
  end
  begin
     id 15 
     name upperneck
     direction 0.00339187 0.976776 -0.214238   
     length 1.48018   
     axis 0 0 0   XYZ
    dof rx ry rz
    limits (-20.0 45.0)
           (-30.0 30.0)
           (-30.0 30.0)
  end
  begin
     id 16
     name head
     direction -0.00263506 0.996603 -0.0823096  
     length 1.4976  
     axis 0 0 0   XYZ
    dof rx ry rz
    limits (-20.0 45.0)
           (-30.0 30.0)
           (-30.0 30.0)
  end
  begin
     id 17 
     name lclavicle
     direction 0.894044 0.44508 -0.0508781  
     length 3.03024  
     axis 0 0 0   XYZ
    dof ry rz
    limits (-20.0 10.0)
           (0.0 20.0)
  end
  begin
     id 18 
     name lhumerus
     direction 1 -4.48961e-011 -2.39475e-018   
     length 4.4661   
     axis 180 -30 -90   XYZ
    dof rx ry rz
    limits (-60.0 90.0)
           (-90.0 90.0)
           (-90.0 90.0)
  end
  begin
     id 19
     name lradius
     direction 1 -4.48961e-011 9.29328e-028   
     length 3.41414   
     axis 180 -30 -90   XYZ
    dof rx
    limits (-10.0 170.0)
  end
  begin
     id 20
     name lwrist
     direction 1 -4.48985e-011 1.53461e-026   
     length 1.70707   
     axis -1.09697e-014 90 90   XYZ
    dof ry
    limits (-180.0 0.0)
 end
  begin
     id 21 
     name lhand
     direction 1 -4.48966e-011 3.06923e-026   
     length 0.328298   
     axis -1.95843e-014 90 90   XYZ
    dof rx rz
    limits (-90.0 90.0)
           (-45.0 45.0)
  end
  begin
     id 22 
     name lfingers
     direction 1 -4.48893e-011 6.13845e-026   
     length 0.264682   
     axis -3.91686e-014 90 90   XYZ
    dof rx
    limits (0.0 90.0)
  end
  begin
     id 23
     name lthumb
     direction 0.707107 -6.34876e-011 0.707107   
     length 0.380032   
     axis -90 45 2.85299e-015   XYZ
    dof rx rz
    limits (-45.0 45.0)
           (-45.0 45.0)
  end
  begin
     id 24 
     name rclavicle
     direction -0.936955 0.347862 -0.0332887   
     length 3.26927  
     axis 0 0 0   XYZ 
    dof ry rz
    limits (-10.0 20.0)
           (-20.0 0.0)
  end
  begin
     id 25 
     name rhumerus
     direction -1 -4.4896e-011 1.78637e-018  
     length 4.40431   
     axis 180 30 90   XYZ
    dof rx ry rz
    limits (-90.0 60.0)
           (-90.0 90.0)
           (-90.0 90.0)
  end
  begin
     id 26 
     name rradius
     direction -1 -4.48955e-011 9.34036e-027   
     length 3.04688   
     axis 180 30 90   XYZ
    dof rx
    limits (-10.0 170.0)
  end
  begin
     id 27 
     name rwrist
     direction -1 -4.49011e-011 1.53461e-026   
     length 1.52344   
     axis -1.09697e-014 -90 -90   XYZ
    dof ry
    limits (-180.0 0.0)
  end
  begin
     id 28
     name rhand
     direction -1 -4.48834e-011 3.06923e-026   
     length 0.500489   
     axis -1.95843e-014 -90 -90   XYZ
    dof rx rz
    limits (-90.0 90.0)
           (-45.0 45.0)
  end
  begin
     id 29
     name rfingers
     direction -1 -4.48967e-011 6.13845e-026   
     length 0.403507   
     axis -3.91686e-014 -90 -90   XYZ
    dof rx
    limits (0.0 90.0)
  end
  begin
     id 30
     name rthumb
     direction -0.707107 -6.34826e-011 0.707107   
     length 0.579358   
     axis -90 -45 -2.85299e-015   XYZ
    dof rx rz
    limits (-45.0 45.0)
           (-45.0 45.0)
  end
:hierarchy
  begin
    root lhipjoint rhipjoint lowerback
    lhipjoint lfemur
    lfemur ltibia
    ltibia lfoot
    lfoot ltoes
    rhipjoint rfemur
    rfemur rtibia
    rtibia rfoot
    rfoot rtoes
    lowerback upperback
    upperback thorax
    thorax lowerneck lclavicle rclavicle
    lowerneck upperneck
    upperneck head
    lclavicle lhumerus
    lhumerus lradius
    lradius lwrist
    lwrist lhand lthumb
    lhand lfingers
    rclavicle rhumerus
    rhumerus rradius
    rradius rwrist
    rwrist rhand rthumb
    rhand rfingers
  end

#!OML:ASF H:\IndianDance\Patient Classification 1\Patient 1\Session 1\dancer.ASF
:FULLY-SPECIFIED
:DEGREES
188
root 10.4147 12.7951 1.41562 73.7349 -85.2055 -71.4724
lowerback 8.02557 -2.04107 -1.95142
upperback -4.42076 -2.80599 2.58033
thorax -8.98348 -1.17455 4.2874
lowerneck -9.5337 -17.1859 -10.1201
upperneck 29.7779 -27.5175 7.98273
head 14.3637 -12.746 -0.0304921
rclavicle 1.0256e-014 -6.4605e-016
rhumerus 6.36417 33.5324 -5.23623
rradius 33.9324
rwrist -10.3244
rhand -5.30146 12.6734
rfingers 7.12502
rthumb 20.5037 -16.2639
lclavicle 1.0256e-014 -6.4605e-016
lhumerus -17.8934 -29.0083 6.92093
lradius 36.1003
lwrist 3.63444
lhand -7.41501 7.94824
lfingers 7.12502
lthumb 18.4716 37.0912
rfemur -41.2222 -43.0398 20.6088
rtibia 83.3355
rfoot -33.9419 -8.25943
rtoes 6.30899
lfemur -38.5007 46.087 -9.2454
ltibia 83.6852
lfoot -33.6507 3.81711
ltoes 3.26798
189
root 10.4189 12.8038 1.42403 75.0714 -85.2571 -72.8615
lowerback 8.01371 -2.14206 -2.00173
upperback -4.46416 -2.94363 2.65498
thorax -9.0063 -1.23568 4.41774
lowerneck -9.37201 -17.3827 -10.1271
upperneck 29.475 -27.8932 8.25927
head 14.2943 -12.8999 0.011967
rclavicle 1.58065e-014 -6.31141e-015
rhumerus 7.14225 33.5833 -5.16019
rradius 33.7493
rwrist -10.4154
rhand -5.31648 12.6766
rfingers 7.12502
rthumb 20.4893 -16.2623
lclavicle 1.58065e-014 -6.31141e-015
lhumerus -18.4507 -29 7.23281
lradius 36.0878
lwrist 3.65987
lhand -7.46162 7.99521
lfingers 7.12502
lthumb 18.4268 37.1424
rfemur -41.1216 -42.8609 20.5462
rtibia 83.1951
rfoot -33.8816 -8.32709
rtoes 6.31415
lfemur -38.3315 46.0623 -9.24647
ltibia 83.5564
lfoot -33.6554 3.89943
ltoes 3.34641
190
root 10.4234 12.8123 1.43237 76.4481 -85.3014 -74.2892
lowerback 7.99543 -2.24048 -2.04515
upperback -4.50443 -3.07707 2.72823
thorax -9.02209 -1.29544 4.54152
lowerneck -9.2089 -17.5629 -10.1563
upperneck 29.1885 -28.2567 8.56509
head 14.2422 -13.0477 0.0674274
rclavicle 4.20034e-014 5.82688e-015
rhumerus 7.92563 33.6371 -5.07022
rradius 33.5611
rwrist -10.5661
rhand -5.32176 12.654
rfingers 7.12502
rthumb 20.4842 -16.2854
lclavicle 4.20034e-014 5.82688e-015
lhumerus -18.969 -29.0068 7.53281
lradius 36.0661
lwrist 3.64988
lhand -7.46383 8.04344
lfingers 7.12502
lthumb 18.4247 37.1909
rfemur -41.0282 -42.6853 20.4935
rtibia 83.0563
rfoot -33.8197 -8.39225
rtoes 6.32389
lfemur -38.1725 46.0294 -9.24917
ltibia 83.4311
lfoot -33.6609 3.99112
ltoes 3.43821
191
root 10.4283 12.8205 1.44056 77.8409 -85.3402 -75.732
lowerback 7.97325 -2.33659 -2.0856
upperback -4.54475 -3.20717 2.80051
thorax -9.03558 -1.35386 4.66185
lowerneck -9.03948 -17.7299 -10.2079
upperneck 28.9243 -28.6101 8.8854
head 14.2064 -13.1921 0.130641
rclavicle 3.78739e-014 5.09386e-015
rhumerus 8.71655 33.6805 -4.97132
rradius 33.3606
rwrist -10.7374
rhand -5.31241 12.6023
rfingers 7.12502
rthumb 20.4932 -16.3362
lclavicle 3.78739e-014 5.09386e-015
lhumerus -19.4516 -29.0164 7.82362
lradius 36.034
lwrist 3.56815
lhand -7.42265 8.09907
lfingers 7.12502
lthumb 18.4643 37.2428
rfemur -40.9404 -42.515 20.447
rtibia 82.9203
rfoot -33.7591 -8.44597
rtoes 6.36858
lfemur -38.0222 45.9893 -9.25496
ltibia 83.3087
lfoot -33.6682 4.09051
ltoes 3.54106
192
root 10.4335 12.8287 1.44858 79.2516 -85.3752 -77.1922
lowerback 7.94591 -2.42953 -2.12596
upperback -4.58044 -3.33302 2.87131
thorax -9.04094 -1.41053 4.77927
lowerneck -8.86265 -17.8871 -10.2763
upperneck 28.6702 -28.9549 9.21816
head 14.1801 -13.3337 0.200701
rclavicle -2.26739e-016 -2.70596e-014
rhumerus 9.51382 33.683 -4.87504
rradius 33.1416
rwrist -10.8794
rhand -5.27983 12.5247
rfingers 7.12502
rthumb 20.5245 -16.4104
lclavicle -2.26739e-016 -2.70596e-014
lhumerus -19.8922 -28.9941 8.10439
lradius 35.986
lwrist 3.40115
lhand -7.34706 8.15709
lfingers 7.12502
lthumb 18.537 37.2939
rfemur -40.8565 -42.3489 20.4035
rtibia 82.7866
rfoot -33.6975 -8.49751
rtoes 6.40081
lfemur -37.878 45.9436 -9.26416
ltibia 83.1878
lfoot -33.6766 4.19859
ltoes 3.64678
193
root 10.439 12.8367 1.45636 80.6391 -85.4096 -78.6286
lowerback 7.91592 -2.52016 -2.17024
upperback -4.61278 -3.45632 2.94043
thorax -9.04069 -1.46598 4.89628
lowerneck -8.67387 -18.0353 -10.3583
upperneck 28.4206 -29.2882 9.55643
head 14.1576 -13.4725 0.276412
rclavicle -3.06066e-014 1.28713e-014
rhumerus 10.3177 33.628 -4.79201
rradius 32.9016
rwrist -10.956
rhand -5.22489 12.4239
rfingers 7.12502
rthumb 20.5773 -16.5055
lclavicle -3.06066e-014 1.28713e-014
lhumerus -20.2957 -28.9113 8.37627
lradius 35.9269
lwrist 3.15241
lhand -7.25636 8.19782
lfingers 7.12502
lthumb 18.6243 37.3263
rfemur -40.7768 -42.1901 20.3591
rtibia 82.6561
rfoot -33.6372 -8.53969
rtoes 6.44819
lfemur -37.74 45.8912 -9.2807
ltibia 83.0677
lfoot -33.6858 4.30999
ltoes 3.76755
194
root 10.4449 12.8445 1.46386 82.0103 -85.4443 -80.0464
lowerback 7.8834 -2.60808 -2.21945
upperback -4.64396 -3.57657 3.00919
thorax -9.03723 -1.51976 5.01489
lowerneck -8.47984 -18.1761 -10.454
upperneck 28.187 -29.6089 9.88397
head 14.1416 -13.6084 0.351526
rclavicle 2.91779e-014 8.24956e-015
rhumerus 11.1223 33.501 -4.73594
rradius 32.6419
rwrist -10.9466
rhand -5.1371 12.2946
rfingers 7.12502
rthumb 20.6617 -16.6257
lclavicle 2.91779e-014 8.24956e-015
lhumerus -20.6681 -28.7466 8.64195
lradius 35.865
lwrist 2.85422
lhand -7.16561 8.23371
lfingers 7.12502
lthumb 18.7115 37.3538
rfemur -40.7049 -42.0377 20.3146
rtibia 82.5296
rfoot -33.5787 -8.57001
rtoes 6.52209
lfemur -37.6106 45.8337 -9.30695
ltibia 82.9475
lfoot -33.6946 4.42935
ltoes 3.88062
195
root 10.451 12.8522 1.47105 83.3596 -85.4805 -81.4427
lowerback 7.85005 -2.69278 -2.27541
upperback -4.67067 -3.69323 3.07803
thorax -9.02784 -1.57162 5.13645
lowerneck -8.28131 -18.3109 -10.5535
upperneck 27.9562 -29.9133 10.1957
head 14.123 -13.74 0.424958
rclavicle 1.95554e-014 -8.64713e-015
rhumerus 11.9229 33.298 -4.7146
rradius 32.3673
rwrist -10.8612
rhand -5.0243 12.1437
rfingers 7.12502
rthumb 20.7701 -16.7647
lclavicle 1.95554e-014 -8.64713e-015
lhumerus -21.0143 -28.4929 8.90391
lradius 35.8114
lwrist 2.56189
lhand -7.11898 8.26041
lfingers 7.12502
lthumb 18.7564 37.3761
rfemur -40.6353 -41.8944 20.2659
rtibia 82.4073
rfoot -33.5208 -8.59557
rtoes 6.59049
lfemur -37.483 45.7724 -9.33869
ltibia 82.827
lfoot -33.7041 4.54794
ltoes 3.99983
196
root 10.4575 12.8596 1.47795 84.7032 -85.5177 -82.8334
lowerback 7.81989 -2.77238 -2.33619
upperback -4.69496 -3.80355 3.14748
thorax -9.0175 -1.62011 5.26043
lowerneck -8.08443 -18.4392 -10.6557
upperneck 27.7349 -30.198 10.4828
head 14.1033 -13.8658 0.493666
rclavicle 1.27098e-014 1.2921e-014
rhumerus 12.7051 33.0295 -4.73011
rradius 32.0909
rwrist -10.7295
rhand -4.8912 11.9892
rfingers 7.12502
rthumb 20.8979 -16.9051
lclavicle 1.27098e-014 1.2921e-014
lhumerus -21.3369 -28.1652 9.16408
lradius 35.7775
lwrist 2.33721
lhand -7.11741 8.30137
lfingers 7.12502
lthumb 18.7579 37.4169
rfemur -40.57 -41.7598 20.2144
rtibia 82.2895
rfoot -33.4632 -8.61747
rtoes 6.65339
lfemur -37.3586 45.7095 -9.37577
ltibia 82.7066
lfoot -33.7124 4.67357
ltoes 4.10056
197
root 10.4642 12.8669 1.48453 86.0348 -85.5555 -84.2123
lowerback 7.79241 -2.84681 -2.40322
upperback -4.71502 -3.90751 3.21849
thorax -9.00379 -1.66522 5.38856
lowerneck -7.89471 -18.5599 -10.7511
upperneck 27.5192 -30.4592 10.7421
head 14.0786 -13.9833 0.556472
rclavicle 2.24875e-015 1.98785e-016
rhumerus 13.4663 32.7133 -4.77489
rradius 31.8256
rwrist -10.5937
rhand -4.74221 11.8124
rfingers 7.12502
rthumb 21.0411 -17.0661
lclavicle 2.24875e-015 1.98785e-016
lhumerus -21.6356 -27.773 9.42358
lradius 35.762
lwrist 2.20638
lhand -7.15644 8.3319
lfingers 7.12502
lthumb 18.7204 37.4511
rfemur -40.5089 -41.6347 20.1614
rtibia 82.1767
rfoot -33.4065 -8.63629
rtoes 6.70961
lfemur -37.2382 45.6458 -9.41777
ltibia 82.5873
lfoot -33.7193 4.80323
ltoes 4.18292
198
root 10.4712 12.8739 1.49083 87.348 -85.5893 -85.5729
lowerback 7.76674 -2.91506 -2.47011
upperback -4.73086 -4.00301 3.29069
thorax -8.98686 -1.70635 5.51649
lowerneck -7.71229 -18.6699 -10.84
upperneck 27.3121 -30.6938 10.9761
head 14.05 -14.0908 0.614911
rclavicle 4.59068e-014 -1.31198e-014
rhumerus 14.1939 32.3618 -4.84725
rradius 31.5827
rwrist -10.48
rhand -4.56727 11.6397
rfingers 7.12502
rthumb 21.2091 -17.2201
lclavicle 4.59068e-014 -1.31198e-014
lhumerus -21.9074 -27.3515 9.6813
lradius 35.7697
lwrist 2.19041
lhand -7.20979 8.3774
lfingers 7.12502
lthumb 18.669 37.5015
rfemur -40.452 -41.5206 20.1119
rtibia 82.0683
rfoot -33.351 -8.65108
rtoes 6.76654
lfemur -37.1228 45.5811 -9.45934
ltibia 82.4701
lfoot -33.7237 4.93409
ltoes 4.25087
199
root 10.4785 12.8807 1.49686 88.6282 -85.618 -86.8999
lowerback 7.74461 -2.97576 -2.5369
upperback -4.74937 -4.0883 3.36545
thorax -8.97548 -1.74225 5.6461
lowerneck -7.52329 -18.7648 -10.929
upperneck 27.1189 -30.8974 11.1843
head 14.0174 -14.1879 0.672057
rclavicle -1.19022e-014 -2.00773e-014
rhumerus 14.8808 32.0182 -4.92203
rradius 31.381
rwrist -10.4236
rhand -4.3774 11.4748
rfingers 7.12502
rthumb 21.3915 -17.3643
lclavicle -1.19022e-014 -2.00773e-014
lhumerus -22.1567 -26.9479 9.94099
lradius 35.8016
lwrist 2.27807
lhand -7.26148 8.41236
lfingers 7.12502
lthumb 18.6193 37.5413
rfemur -40.3999 -41.4182 20.068
rtibia 81.9647
rfoot -33.2947 -8.66747
rtoes 6.79947
lfemur -37.0137 45.5157 -9.49916
ltibia 82.3564
lfoot -33.7274 5.05274
ltoes 4.34687
200
root 10.486 12.8872 1.50268 89.8514 -85.6412 -88.1666
lowerback 7.72013 -3.03251 -2.60229
upperback -4.76345 -4.16803 3.44042
thorax -8.95815 -1.7758 5.77385
lowerneck -7.35243 -18.8411 -11.0028
upperneck 26.9443 -31.0663 11.3686
head 13.9845 -14.2694 0.725115
rclavicle 3.89866e-014 -7.7526e-015
rhumerus 15.5358 31.6904 -4.98534
rradius 31.2303
rwrist -10.435
rhand -4.17774 11.3188
rfingers 7.12502
rthumb 21.5833 -17.4985
lclavicle 3.89866e-014 -7.7526e-015
lhumerus -22.3826 -26.577 10.1923
lradius 35.8513
lwrist 2.43942
lhand -7.28578 8.44429
lfingers 7.12502
lthumb 18.596 37.5754
rfemur -40.3562 -41.3291 20.032
rtibia 81.8654
rfoot -33.2379 -8.68388
rtoes 6.80762
lfemur -36.9259 45.4526 -9.54929
ltibia 82.2425
lfoot -33.7076 5.26418
ltoes 4.15084
201
root 10.4939 12.8935 1.50826 91.0065 -85.6564 -89.3605
lowerback 7.69205 -3.08421 -2.66322
upperback -4.78113 -4.24043 3.51675
thorax -8.94332 -1.80597 5.89946
lowerneck -7.18127 -18.8958 -11.0713
upperneck 26.7984 -31.1988 11.5242
head 13.9524 -14.3371 0.775778
rclavicle -1.95057e-014 -1.98785e-016
rhumerus 16.1551 31.4022 -5.02295
rradius 31.1347
rwrist -10.4996
rhand -3.96953 11.1776
rfingers 7.12502
rthumb 21.7832 -17.6166
lclavicle -1.95057e-014 -1.98785e-016
lhumerus -22.5876 -26.2706 10.439
lradius 35.9138
lwrist 2.62293
lhand -7.27056 8.45046
lfingers 7.12502
lthumb 18.6106 37.5802
rfemur -40.3224 -41.252 20.0082
rtibia 81.7705
rfoot -33.1832 -8.69392
rtoes 6.81995
lfemur -36.8583 45.3917 -9.60369
ltibia 82.1306
lfoot -33.6716 5.52228
ltoes 3.79743
